<svg width="37" height="75" viewBox="0 0 37 75" fill="none" xmlns="http://www.w3.org/2000/svg">
<g clip-path="url(#clip0_1_324)">
<path d="M34.8051 38.4021L29.2353 34.0157V3.79055C29.2353 1.70492 27.5437 0 25.4561 0H3.77921C1.69157 0 0 1.69665 0 3.79055V40.3636C0 42.4492 1.69157 44.1542 3.77921 44.1542H5.30575C4.50535 45.197 4.24955 46.6039 4.7529 47.9116L7.17886 54.2264L11.1149 73.9655C11.2304 74.5696 11.7667 75 12.3773 75H28.9217C29.5241 75 30.0439 74.5779 30.176 73.9903L36.868 44.2121C37.3548 42.052 36.5462 39.7677 34.8051 38.4021ZM7.76472 45.3625L9.15098 44.6425C9.30776 44.8825 11.3046 49.6165 11.5357 49.5751C11.5357 49.5751 15.0013 52.5215 15.0674 52.5546C14.8693 53.5561 14.564 54.7478 14.0937 56.0969L9.48104 53.0181L7.16235 46.9847C6.92306 46.3639 7.18711 45.6687 7.77297 45.3708L7.76472 45.3625ZM34.3512 43.6493L27.8903 72.4178H13.4335L10.2979 56.6597L13.1942 58.5881C11.5769 64.3153 16.2308 68.7348 16.4371 68.9335C16.957 69.4218 17.7739 69.3886 18.2607 68.859C18.7475 68.3376 18.7145 67.5182 18.1864 67.0299C18.1452 66.9885 14.0524 63.1152 15.9173 58.5467C18.236 52.8774 18.0049 49.0951 17.9884 48.8882L15.678 27.345C15.4552 25.1186 18.665 24.4648 19.3087 26.6166L25.5386 47.6964C26.0419 49.3103 28.4679 48.6068 28.014 46.9598L21.7841 25.88C21.4458 24.7296 20.6784 23.7861 19.6305 23.2233C16.6269 21.4853 12.6414 24.1751 13.12 27.6264C13.12 27.6264 15.4304 49.2606 15.4222 49.5007L13.4253 47.7875L11.7585 44.1459C13.7141 44.4438 14.1184 41.7209 12.1545 41.5637H3.77096C3.09434 41.5637 2.57449 41.034 2.57449 40.3636V3.79055C2.57449 3.1119 3.10259 2.59049 3.77921 2.59049H16.2226V20.1115C16.2556 21.8246 18.7723 21.7998 18.7971 20.1115V2.59049H25.4478C26.1244 2.59049 26.6443 3.12017 26.6443 3.79055V37.591C26.7516 39.4863 29.4581 39.1884 29.2188 37.3014L33.196 40.4381C34.1532 41.1912 34.607 42.4575 34.3347 43.6493H34.3512Z" fill="white"/>
<path d="M7.04683 4.5603C6.33719 4.5603 5.75958 5.13964 5.75958 5.85141V10.2627C5.75958 10.9744 6.33719 11.5538 7.04683 11.5538C7.75646 11.5538 8.33407 10.9744 8.33407 10.2627V5.85141C8.33407 5.13964 7.75646 4.5603 7.04683 4.5603Z" fill="white"/>
</g>
<defs>
<clipPath id="clip0_1_324">
<rect width="37" height="75" fill="white"/>
</clipPath>
</defs>
</svg>
