<svg width="64" height="46" viewBox="0 0 64 46" fill="none" xmlns="http://www.w3.org/2000/svg">
<g clip-path="url(#clip0_1_310)">
<path d="M30.8481 36.8766C30.7019 36.7539 30.7092 36.5229 30.8774 36.4074L32.6034 35.2381C32.9105 35.0288 32.7862 34.5524 32.4132 34.5163L26.0286 33.975C25.758 33.9533 25.5459 34.1987 25.6044 34.4586L27.1036 40.6083C27.1914 40.9692 27.6887 41.0197 27.8496 40.6877L28.7565 38.8254C28.8442 38.6522 29.071 38.6089 29.2172 38.7316L32.4059 41.4383C32.5741 41.5827 32.8228 41.561 32.969 41.395L34.0807 40.1247C34.2269 39.9586 34.205 39.7132 34.0368 39.5689L30.8481 36.8694V36.8766Z" fill="white"/>
<path d="M62.9322 0H1.06045C0.475374 0 0 0.469167 0 1.0466V44.9606C0 45.5381 0.475374 46.0072 1.06045 46.0072H62.9469C63.5319 46.0072 64.0073 45.5381 64.0073 44.9606V1.03938C64.0073 0.461949 63.5319 0 62.9469 0H62.9322ZM61.8791 2.07877V11.3033H2.11359V2.07877H61.8864H61.8791ZM2.11359 43.914V13.3893H61.8864V43.9068H2.11359V43.914Z" fill="white"/>
<path d="M20.7263 35.4041C19.6439 35.4041 18.7736 36.2702 18.7736 37.3312C18.7736 38.3923 19.6512 39.2584 20.7263 39.2584C21.8014 39.2584 22.679 38.3923 22.679 37.3312C22.679 36.2702 21.8014 35.4041 20.7263 35.4041Z" fill="white"/>
<path d="M14.0126 35.4041C12.9302 35.4041 12.0599 36.2702 12.0599 37.3312C12.0599 38.3923 12.9375 39.2584 14.0126 39.2584C15.0876 39.2584 15.9653 38.3923 15.9653 37.3312C15.9653 36.263 15.0876 35.4041 14.0126 35.4041Z" fill="white"/>
<path d="M22.562 32.0043H13.0911C12.7181 32.0043 12.4109 31.7084 12.4109 31.3331C12.4109 30.9577 12.7108 30.6618 13.0911 30.6618H22.1159C24.8219 30.6618 27.1549 28.7562 27.6668 26.1289L28.581 21.4084C28.7126 20.7732 28.5444 20.1164 28.1276 19.6183C27.7107 19.1131 27.0964 18.8243 26.4455 18.8243H9.09796C8.19109 17.9221 6.94049 17.3735 5.59481 17.3735C5.00974 17.3735 4.53436 17.8427 4.53436 18.4201C4.53436 18.9976 5.00974 19.4667 5.59481 19.4667C6.77959 19.4667 7.85467 20.203 8.25691 21.3073L10.6118 27.7313L11.1384 29.2976C11.1384 29.2976 11.1677 29.3337 11.175 29.3553C10.6411 29.8606 10.2974 30.5535 10.2974 31.3403C10.2974 32.856 11.548 34.0903 13.0838 34.0903H22.5547C23.1398 34.0903 23.6152 33.6211 23.6152 33.0437C23.6152 32.4663 23.1398 31.9971 22.5547 31.9971L22.562 32.0043ZM10.3632 20.932L26.504 21.0186L25.5898 25.7536C25.2753 27.3993 23.8126 28.5902 22.1159 28.5902H13.1204L10.3632 20.932Z" fill="white"/>
<path d="M58.3906 20.8525H31.6161C31.031 20.8525 30.5556 21.3217 30.5556 21.8991C30.5556 22.4766 31.031 22.9457 31.6161 22.9457H58.3906C58.9757 22.9457 59.451 22.4766 59.451 21.8991C59.451 21.3217 58.9757 20.8525 58.3906 20.8525Z" fill="white"/>
<path d="M58.3906 25.7969H31.6161C31.031 25.7969 30.5556 26.266 30.5556 26.8435C30.5556 27.4209 31.031 27.8901 31.6161 27.8901H58.3906C58.9757 27.8901 59.451 27.4209 59.451 26.8435C59.451 26.266 58.9757 25.7969 58.3906 25.7969Z" fill="white"/>
<path d="M58.3906 30.7412H31.6161C31.031 30.7412 30.5556 31.2104 30.5556 31.7878C30.5556 32.3653 31.031 32.8344 31.6161 32.8344H58.3906C58.9757 32.8344 59.451 32.3653 59.451 31.7878C59.451 31.2104 58.9757 30.7412 58.3906 30.7412Z" fill="white"/>
<path d="M8.15448 9.37617C9.55135 9.37617 10.6849 8.25739 10.6849 6.87876C10.6849 5.50013 9.55135 4.38135 8.15448 4.38135C6.75761 4.38135 5.62402 5.50013 5.62402 6.87876C5.62402 8.25739 6.75761 9.37617 8.15448 9.37617Z" fill="white"/>
<path d="M14.4294 9.37617C15.8263 9.37617 16.9599 8.25739 16.9599 6.87876C16.9599 5.50013 15.8263 4.38135 14.4294 4.38135C13.0326 4.38135 11.899 5.50013 11.899 6.87876C11.899 8.25739 13.0326 9.37617 14.4294 9.37617Z" fill="white"/>
<path d="M20.7117 9.37617C22.1085 9.37617 23.2421 8.25739 23.2421 6.87876C23.2421 5.50013 22.1085 4.38135 20.7117 4.38135C19.3148 4.38135 18.1812 5.50013 18.1812 6.87876C18.1812 8.25739 19.3148 9.37617 20.7117 9.37617Z" fill="white"/>
<path d="M30.3801 9.88131H56.416C58.0761 9.88131 59.4218 8.55321 59.4218 6.84255C59.4218 5.1319 58.0761 3.87598 56.416 3.87598H30.3801C28.7199 3.87598 27.3743 5.20408 27.3743 6.91473C27.3743 8.62539 28.7199 9.88131 30.3801 9.88131ZM30.3801 5.96196H56.416C56.9133 5.96196 57.3155 6.35895 57.3155 6.91473C57.3155 7.40555 56.9133 7.80254 56.416 7.80254H30.3801C29.8828 7.80254 29.4805 7.40555 29.4805 6.84977C29.4805 6.35895 29.8828 5.96918 30.3801 5.96918V5.96196Z" fill="white"/>
</g>
<defs>
<clipPath id="clip0_1_310">
<rect width="64" height="46" fill="white"/>
</clipPath>
</defs>
</svg>
