<svg width="70" height="63" viewBox="0 0 70 63" fill="none" xmlns="http://www.w3.org/2000/svg">
<g clip-path="url(#clip0_1_226)">
<path d="M69.6669 5.39025C69.4557 5.17982 69.1551 5.05842 68.8545 5.05842H64.9222V1.14924C64.9222 0.84169 64.8004 0.550323 64.5891 0.339891C64.3779 0.12946 64.0773 0.00805664 63.7767 0.00805664H41.7676C39.6472 0.00805664 37.6567 0.833596 36.1537 2.3309C35.7068 2.80032 35.3169 3.31021 34.9919 3.86057C34.6669 3.31021 34.2769 2.79223 33.822 2.31471C32.3271 0.833596 30.3366 0.0161502 28.2242 0.00805664H6.22331C5.9227 0.00805664 5.6221 0.12946 5.41086 0.339891C5.1915 0.558416 5.07776 0.84169 5.07776 1.14924V5.05842H1.14554C0.84494 5.05842 0.544336 5.17982 0.333101 5.39025C0.113742 5.60878 0 5.89205 0 6.1996V51.7257C0 52.0332 0.121866 52.3246 0.333101 52.535C0.544336 52.7455 0.84494 52.8669 1.14554 52.8669H28.7686V55.0926C28.7686 55.3354 28.8498 55.5701 28.9961 55.7805L34.0738 62.5224C34.2932 62.8057 34.6344 62.9838 34.9919 62.9838C35.3493 62.9838 35.6906 62.8138 35.9181 62.5224L40.9958 55.7724C41.1421 55.5701 41.2233 55.3354 41.2233 55.0926V47.0072C41.2883 46.991 41.3452 46.9667 41.4102 46.9424C42.572 46.4082 43.8637 46.1169 45.1555 46.1169H63.7767C64.0773 46.1169 64.3779 45.9955 64.5891 45.785C64.8004 45.5746 64.9222 45.2751 64.9222 44.9757V12.9496C64.9222 12.3183 64.4104 11.8084 63.7767 11.8084C63.143 11.8084 62.623 12.3183 62.623 12.9496V43.8426H45.1555C43.8069 43.8426 42.4826 44.0854 41.2314 44.5629V7.89115C41.2314 7.5836 41.1177 7.30032 40.8983 7.0818C40.679 6.86327 40.3946 6.74996 40.0859 6.74996H36.2999C36.8117 4.18432 39.0947 2.29852 41.7433 2.29852H62.6311V6.2077C62.6311 6.51525 62.753 6.80662 62.9643 7.01705C63.1836 7.23557 63.468 7.34888 63.7767 7.34888H67.7008V50.5845H47.6985C47.0648 50.5845 46.5448 51.0944 46.5448 51.7257C46.5448 52.357 47.0648 52.875 47.6985 52.875H68.8545C69.1551 52.875 69.4557 52.7536 69.6669 52.5431C69.8863 52.3246 70 52.0413 70 51.7338V6.2077C70 5.90014 69.8781 5.60878 69.6669 5.39834V5.39025ZM31.0759 50.5845V19.1573H33.8545V50.5845H31.0759ZM38.9241 52.8831V54.7284L35 59.9406L31.0759 54.7203V52.8831H38.9241ZM38.9241 19.1573V50.5845H36.1537V19.1573H38.9241ZM5.41086 45.8012C5.6221 46.0117 5.9227 46.1331 6.22331 46.1331H23.1546C23.7883 46.1331 24.3001 45.6232 24.3001 44.9919C24.3001 44.3606 23.7883 43.8426 23.1546 43.8426H7.37697V2.29852H28.2649C30.9215 2.29852 33.1964 4.18432 33.7163 6.74996H29.9304C29.6216 6.74996 29.3292 6.87137 29.1179 7.0818C28.8986 7.30032 28.7848 7.5836 28.7848 7.89115V50.5845H2.29921V7.35698H5.07776V44.9919C5.07776 45.2913 5.19963 45.5908 5.41086 45.8012ZM38.9322 9.04043V16.8669H31.0759V9.04043H38.9322Z" fill="#DF2127"/>
<path d="M12.9991 17.474H23.1547C23.7884 17.474 24.3002 16.956 24.3002 16.3247C24.3002 15.6934 23.7884 15.1754 23.1547 15.1754H12.9991C12.3654 15.1754 11.8455 15.6934 11.8455 16.3247C11.8455 16.956 12.3654 17.474 12.9991 17.474Z" fill="#DF2127"/>
<path d="M12.9991 24.2159H23.1547C23.7884 24.2159 24.3002 23.6979 24.3002 23.0666C24.3002 22.4353 23.7884 21.9254 23.1547 21.9254H12.9991C12.3654 21.9254 11.8455 22.4353 11.8455 23.0666C11.8455 23.6979 12.3654 24.2159 12.9991 24.2159Z" fill="#DF2127"/>
<path d="M24.3002 29.8165C24.3002 29.1852 23.7884 28.6672 23.1547 28.6672H12.9991C12.3654 28.6672 11.8455 29.1852 11.8455 29.8165C11.8455 30.4478 12.3654 30.9577 12.9991 30.9577H23.1547C23.7884 30.9577 24.3002 30.4478 24.3002 29.8165Z" fill="#DF2127"/>
<path d="M23.1546 35.4092H18.0769C17.4432 35.4092 16.9232 35.9272 16.9232 36.5585C16.9232 37.1898 17.4432 37.7077 18.0769 37.7077H23.1546C23.7884 37.7077 24.3002 37.1898 24.3002 36.5585C24.3002 35.9272 23.7884 35.4092 23.1546 35.4092Z" fill="#DF2127"/>
<path d="M12.9991 10.7239H18.0769C18.7106 10.7239 19.2224 10.214 19.2224 9.58275C19.2224 8.95146 18.7106 8.43347 18.0769 8.43347H12.9991C12.3654 8.43347 11.8455 8.95146 11.8455 9.58275C11.8455 10.214 12.3654 10.7239 12.9991 10.7239Z" fill="#DF2127"/>
<path d="M57.0009 15.1754H46.8454C46.2117 15.1754 45.6998 15.6934 45.6998 16.3247C45.6998 16.956 46.2117 17.474 46.8454 17.474H57.0009C57.6346 17.474 58.1546 16.956 58.1546 16.3247C58.1546 15.6934 57.6346 15.1754 57.0009 15.1754Z" fill="#DF2127"/>
<path d="M57.0009 21.9254H46.8454C46.2117 21.9254 45.6998 22.4353 45.6998 23.0666C45.6998 23.6979 46.2117 24.2159 46.8454 24.2159H57.0009C57.6346 24.2159 58.1546 23.6979 58.1546 23.0666C58.1546 22.4353 57.6346 21.9254 57.0009 21.9254Z" fill="#DF2127"/>
<path d="M57.8215 30.626C58.0328 30.4155 58.1546 30.1161 58.1546 29.8166C58.1546 29.5171 58.0328 29.2177 57.8215 29.0072C57.6022 28.7887 57.3178 28.6754 57.0091 28.6754H46.8536C46.2198 28.6754 45.708 29.1934 45.708 29.8247C45.708 30.456 46.2198 30.9659 46.8536 30.9659H57.0091C57.3178 30.9659 57.6103 30.8445 57.8215 30.634V30.626Z" fill="#DF2127"/>
<path d="M46.8454 35.4092C46.2117 35.4092 45.6998 35.9272 45.6998 36.5585C45.6998 37.1898 46.2117 37.7077 46.8454 37.7077H51.9231C52.5568 37.7077 53.0768 37.1898 53.0768 36.5585C53.0768 35.9272 52.5568 35.4092 51.9231 35.4092H46.8454Z" fill="#DF2127"/>
<path d="M57.0009 8.43347H51.9231C51.2894 8.43347 50.7776 8.95146 50.7776 9.58275C50.7776 10.214 51.2894 10.7239 51.9231 10.7239H57.0009C57.6346 10.7239 58.1546 10.214 58.1546 9.58275C58.1546 8.95146 57.6346 8.43347 57.0009 8.43347Z" fill="#DF2127"/>
</g>
<defs>
<clipPath id="clip0_1_226">
<rect width="70" height="63" fill="white"/>
</clipPath>
</defs>
</svg>
