<svg width="65" height="65" viewBox="0 0 65 65" fill="none" xmlns="http://www.w3.org/2000/svg">
<g clip-path="url(#clip0_1_219)">
<path fill-rule="evenodd" clip-rule="evenodd" d="M32.4788 0C32.4788 0 32.2248 0 32.0977 0.0847458L0.71987 11.822C0.296417 11.9915 0 12.4153 0 12.8814V63.8983C0 64.5339 0.508143 65 1.10098 65H63.8567C64.4919 65 65 64.4915 65 63.8983V12.8814C65 12.4153 64.7036 11.9915 64.2801 11.822L32.9023 0.0847458C32.9023 0.0847458 32.6059 0 32.4788 0ZM32.4788 2.33051L62.7134 13.6864V62.7966H57.3778V19.2797C57.3778 18.6441 56.8697 18.178 56.2769 18.178H8.68078C8.0456 18.178 7.5798 18.6864 7.5798 19.2797V62.7966H2.2443V13.6864L32.4788 2.33051ZM26.2541 10.7203C25.6189 10.7203 25.1531 11.2288 25.1531 11.822C25.1531 12.4576 25.6612 12.9661 26.2541 12.9661H38.7036C39.3388 12.9661 39.8469 12.4576 39.8469 11.8644C39.8469 11.2288 39.3388 10.7627 38.7036 10.7627H26.2541V10.7203ZM9.78176 20.3814H55.1759V62.7542H49.6287V47.839C49.6287 47.2034 49.1205 46.7373 48.5277 46.7373H41.6254V31.822C41.6254 31.1864 41.1173 30.7203 40.4821 30.7203H24.4332C23.798 30.7203 23.2899 31.2288 23.2899 31.822V46.7373H16.3876C15.7524 46.7373 15.2443 47.2458 15.2443 47.839V62.7542H9.69707V20.3814H9.78176ZM25.5765 32.9237H28.7101V38.178C28.7101 38.8136 29.2182 39.322 29.8111 39.322H35.0619C35.6971 39.322 36.2052 38.8136 36.2052 38.2203V32.9661H39.3388V46.7797H25.5342V32.9661L25.5765 32.9237ZM30.9544 32.9237H33.9609V37.0339H30.9544V32.9237ZM17.5733 48.9831H20.7068V54.2373C20.7068 54.8729 21.215 55.339 21.8502 55.339H27.101C27.7362 55.339 28.202 54.8305 28.202 54.2373V48.9831H31.3355V62.7966H17.5309V48.9831H17.5733ZM22.9511 48.9831H26V53.0932H22.9511V48.9831ZM33.6222 48.9831H36.7557V54.2373C36.7557 54.8729 37.2638 55.339 37.8567 55.339H43.1075C43.7427 55.339 44.2508 54.8305 44.2508 54.2373V48.9831H47.3844V62.7966H33.5798V48.9831H33.6222ZM39 48.9831H42.0065V53.0932H39V48.9831Z" fill="#DF2127"/>
</g>
<defs>
<clipPath id="clip0_1_219">
<rect width="65" height="65" fill="white"/>
</clipPath>
</defs>
</svg>
