<svg width="52" height="76" viewBox="0 0 52 76" fill="none" xmlns="http://www.w3.org/2000/svg">
<g clip-path="url(#clip0_1_254)">
<path d="M49.2148 0H2.79393C1.24946 0 0 1.24335 0 2.78028V64.5594C0 66.0877 1.24946 67.3311 2.79393 67.3311H9.0846L7.87853 69.412C7.64425 69.8178 7.67896 70.3186 7.96529 70.6898C8.25163 71.0611 8.73753 71.2252 9.18004 71.1043L14.7419 69.6192L16.2343 75.1538C16.3557 75.6028 16.7375 75.9396 17.1974 76C17.2495 76 17.3015 76.0086 17.3449 76.0086C17.7527 76.0086 18.1345 75.7928 18.3427 75.4301L23.0369 67.3311H28.9458L33.6399 75.4301C33.8482 75.7928 34.2299 76.0086 34.6377 76.0086C34.6898 76.0086 34.7419 76.0086 34.7853 76C35.2451 75.9396 35.6269 75.6028 35.7484 75.1538L37.2408 69.6192L42.8026 71.1043C43.2538 71.2252 43.731 71.0611 44.0174 70.6898C44.3037 70.3186 44.3384 69.8178 44.1041 69.412L42.898 67.3311H49.1887C50.7245 67.3311 51.974 66.0877 51.974 64.5594V2.78028C51.974 1.25199 50.7245 0 49.1887 0H49.2148ZM17.744 71.8641L16.6768 67.9009C16.5119 67.2879 15.8785 66.9166 15.2625 67.0893L11.2798 68.1513L16.3731 59.3701C16.5206 59.5774 16.6768 59.8882 16.8156 60.1818C17.1714 60.9071 17.6139 61.8137 18.5249 62.2627C19.4273 62.703 20.3818 62.5131 21.2234 62.3404C21.6659 62.254 22.1605 62.1504 22.4208 62.2109C22.603 62.254 22.8633 62.4181 23.1236 62.608L17.7527 71.8728L17.744 71.8641ZM12.0781 44.9162C11.8959 44.5017 11.6443 43.9318 11.6963 43.6987C11.7484 43.4742 12.2256 43.0857 12.5727 42.8007C13.0933 42.3776 13.692 41.8941 14.0217 41.2206C14.3601 40.5299 14.3688 39.7701 14.3861 39.0879C14.3861 38.6821 14.4035 38.0691 14.5336 37.905C14.6638 37.741 15.2625 37.6028 15.6616 37.5078C16.321 37.3524 17.0672 37.1797 17.6659 36.6962C18.2646 36.2213 18.5944 35.5392 18.8894 34.9262C19.0803 34.5376 19.3406 34.0023 19.5315 33.9073C19.7223 33.8123 20.3124 33.9332 20.7462 34.0195C21.4143 34.1577 22.1779 34.3045 22.9328 34.1318C23.6703 33.9591 24.2777 33.5015 24.8156 33.0957C25.2148 32.7935 25.7093 32.4222 25.987 32.4222C26.2646 32.4222 26.7592 32.7935 27.1584 33.0957C27.6963 33.5015 28.3124 33.9591 29.0412 34.1318C29.7961 34.3045 30.5597 34.1577 31.2278 34.0195C31.6616 33.9332 32.2516 33.8123 32.4425 33.9073C32.6334 34.0023 32.8937 34.5376 33.0846 34.9262C33.3796 35.5306 33.718 36.2127 34.308 36.6962C34.9067 37.1711 35.6529 37.3524 36.3124 37.5078C36.7115 37.6028 37.3102 37.741 37.4317 37.905C37.5618 38.0691 37.5705 38.6821 37.5792 39.0879C37.5879 39.7614 37.6052 40.5299 37.9436 41.2206C38.2733 41.8941 38.872 42.3776 39.3926 42.8007C39.7397 43.0857 40.2169 43.4656 40.269 43.6987C40.321 43.9318 40.0694 44.5017 39.8872 44.9162C39.6095 45.5465 39.2885 46.2631 39.2885 47.0489C39.2885 47.8346 39.6009 48.5512 39.8872 49.1815C40.0694 49.596 40.321 50.1659 40.269 50.399C40.2169 50.6235 39.7397 51.012 39.3926 51.297C38.872 51.7201 38.2733 52.2036 37.9436 52.8771C37.6052 53.5678 37.5965 54.3277 37.5792 55.0098C37.5792 55.4156 37.5618 56.0286 37.4317 56.1927C37.3015 56.3567 36.7028 56.4949 36.3037 56.5899C36.1128 56.633 35.9132 56.6848 35.7137 56.7367C35.6963 56.7367 35.679 56.7453 35.6616 56.7539C35.1844 56.8921 34.7072 57.0734 34.2994 57.4015C33.7007 57.8764 33.3709 58.5585 33.0759 59.1629C32.885 59.5515 32.6247 60.0868 32.4338 60.1818C32.243 60.2768 31.6443 60.1559 31.2191 60.0695C30.551 59.9314 29.7874 59.7846 29.0325 59.9573C28.295 60.13 27.6876 60.5876 27.1497 60.9934C26.7505 61.2956 26.256 61.6669 25.9783 61.6669C25.7007 61.6669 25.2061 61.2956 24.8069 60.9934C24.269 60.5876 23.6529 60.13 22.9241 59.9573C22.6811 59.8968 22.4382 59.8796 22.1952 59.8796C21.692 59.8796 21.1887 59.9746 20.7375 60.0695C20.3037 60.1559 19.7137 60.2768 19.5228 60.1818C19.3319 60.0868 19.0716 59.5515 18.8807 59.1629C18.5857 58.5585 18.2473 57.8678 17.6573 57.4015C17.2495 57.0734 16.7636 56.8921 16.295 56.7539C16.2777 56.7539 16.2603 56.7453 16.243 56.7367C16.0434 56.6848 15.8438 56.633 15.6529 56.5899C15.2538 56.4949 14.6551 56.3567 14.5336 56.1927C14.4035 56.0286 14.3948 55.4156 14.3861 55.0098C14.3774 54.3363 14.3601 53.5678 14.0217 52.8771C13.692 52.2036 13.0933 51.7201 12.5727 51.297C12.2256 51.012 11.7484 50.6321 11.6963 50.399C11.6443 50.1659 11.8959 49.596 12.0781 49.1815C12.3557 48.5512 12.6768 47.8346 12.6768 47.0489C12.6768 46.2631 12.3644 45.5465 12.0781 44.9162ZM24.3818 65.0257L25.0846 63.8082C25.3709 63.9032 25.6746 63.9723 26.0043 63.9723C26.3341 63.9723 26.6291 63.9032 26.9241 63.8082L27.6269 65.0257H24.3905H24.3818ZM36.7462 67.0893C36.1302 66.9252 35.4967 67.2879 35.3319 67.9009L34.2646 71.8641L28.885 62.5994C29.1453 62.4095 29.4056 62.2454 29.5879 62.2022C29.8482 62.1418 30.3514 62.2368 30.7852 62.3317C31.6269 62.4958 32.5813 62.6944 33.4837 62.254C34.3861 61.8137 34.8373 60.9071 35.1931 60.1731C35.3319 59.8882 35.4881 59.5687 35.6356 59.3615L40.7289 68.1513L36.7462 67.0893ZM49.692 64.5508C49.692 64.8098 49.4751 65.0257 49.2148 65.0257H41.5879L37.8395 58.5671C38.3601 58.3858 38.8807 58.1182 39.2711 57.6346C39.8959 56.8575 39.9132 55.8559 39.9219 55.0529C39.9219 54.6212 39.9393 54.1204 40.0521 53.8959C40.1649 53.6714 40.5466 53.3606 40.885 53.0843C41.5271 52.5662 42.3254 51.9187 42.5597 50.9257C42.7939 49.95 42.3948 49.052 42.0477 48.2577C41.8482 47.8087 41.6486 47.3511 41.6486 47.0489C41.6486 46.7467 41.8568 46.289 42.0477 45.84C42.3948 45.0457 42.7939 44.1477 42.5597 43.172C42.3254 42.1791 41.5271 41.5315 40.885 41.0134C40.5466 40.7371 40.1649 40.4263 40.0521 40.2018C39.9393 39.9773 39.9306 39.4851 39.9306 39.0448C39.9219 38.2418 39.9046 37.2315 39.2711 36.4631C38.6464 35.686 37.6659 35.4529 36.8764 35.2715C36.4512 35.1679 35.974 35.0557 35.7831 34.9089C35.5922 34.7535 35.3753 34.3131 35.1844 33.9332C34.8286 33.2079 34.3861 32.3013 33.4751 31.8523C32.5727 31.412 31.6182 31.6019 30.7852 31.7746C30.3427 31.8609 29.8482 31.9646 29.5879 31.9041C29.3275 31.8437 28.9284 31.5415 28.5727 31.2738C27.8959 30.7644 27.0629 30.1341 26.0043 30.1341C24.9458 30.1341 24.1128 30.7644 23.436 31.2738C23.0803 31.5415 22.6725 31.8437 22.4121 31.9041C22.1518 31.9646 21.6486 31.8696 21.2148 31.7746C20.3731 31.6105 19.4187 31.412 18.5163 31.8523C17.6139 32.2927 17.1627 33.1993 16.8069 33.9332C16.6161 34.3217 16.3991 34.7621 16.2082 34.9089C16.0174 35.0643 15.5401 35.1766 15.115 35.2715C14.3254 35.4615 13.3449 35.686 12.7202 36.4631C12.0954 37.2402 12.0781 38.2418 12.0607 39.0448C12.0607 39.4765 12.0434 39.9773 11.9306 40.2018C11.8178 40.4263 11.436 40.7371 11.0976 41.0134C10.4555 41.5315 9.65727 42.1791 9.42299 43.172C9.18872 44.1477 9.58785 45.0457 9.93492 45.84C10.1345 46.289 10.3341 46.7467 10.3341 47.0489C10.3341 47.3511 10.1258 47.8087 9.93492 48.2577C9.58785 49.052 9.18872 49.95 9.42299 50.9257C9.65727 51.9187 10.4555 52.5662 11.0976 53.0843C11.436 53.3606 11.8178 53.6714 11.9306 53.8959C12.0434 54.1204 12.0521 54.6126 12.0607 55.0529C12.0694 55.8559 12.0868 56.8662 12.7202 57.6346C13.102 58.1095 13.6226 58.3858 14.1518 58.5671L10.4035 65.0257H2.79393C2.53362 65.0257 2.3167 64.8098 2.3167 64.5508V2.78028C2.3167 2.52125 2.53362 2.30539 2.79393 2.30539H49.2234C49.4837 2.30539 49.7007 2.52125 49.7007 2.78028V64.5594L49.692 64.5508ZM26.0043 57.3411C31.705 57.3411 36.3471 52.7217 36.3471 47.0489C36.3471 41.3761 31.705 36.7566 26.0043 36.7566C20.3037 36.7566 15.6616 41.3761 15.6616 47.0489C15.6616 52.7217 20.3037 57.3411 26.0043 57.3411ZM26.0043 39.0707C30.4295 39.0707 34.0304 42.6539 34.0304 47.0575C34.0304 51.461 30.4295 55.0443 26.0043 55.0443C21.5792 55.0443 17.9783 51.461 17.9783 47.0575C17.9783 42.6539 21.5792 39.0707 26.0043 39.0707ZM21.3189 47.2043C21.6746 46.6776 22.3948 46.5394 22.9241 46.8934L24.7896 48.1368L28.6681 43.1979C29.0586 42.6971 29.7874 42.6108 30.2907 42.9993C30.7939 43.3879 30.8807 44.1132 30.4902 44.614L25.9523 50.399C25.7267 50.6839 25.3883 50.8394 25.0412 50.8394C24.8156 50.8394 24.5987 50.7789 24.3991 50.6408L21.6399 48.793C21.1106 48.439 20.9718 47.7223 21.3275 47.1956L21.3189 47.2043ZM8.16486 11.2852C8.16486 10.6462 8.68547 10.1368 9.31887 10.1368H30.5249C31.167 10.1368 31.679 10.6549 31.679 11.2852C31.679 11.9155 31.1584 12.4335 30.5249 12.4335H9.31887C8.67679 12.4335 8.16486 11.9155 8.16486 11.2852ZM43.8438 17.5451C43.8438 18.184 43.3232 18.6935 42.6898 18.6935H9.31887C8.67679 18.6935 8.16486 18.1754 8.16486 17.5451C8.16486 16.9148 8.68547 16.3967 9.31887 16.3967H42.6811C43.3232 16.3967 43.8351 16.9148 43.8351 17.5451H43.8438ZM43.8438 23.3647C43.8438 24.0036 43.3232 24.5131 42.6898 24.5131H9.31887C8.67679 24.5131 8.16486 23.995 8.16486 23.3647C8.16486 22.7344 8.68547 22.2163 9.31887 22.2163H42.6811C43.3232 22.2163 43.8351 22.7344 43.8351 23.3647H43.8438Z" fill="#DF2127"/>
</g>
<defs>
<clipPath id="clip0_1_254">
<rect width="52" height="76" fill="white"/>
</clipPath>
</defs>
</svg>
