<svg width="87" height="46" viewBox="0 0 87 46" fill="none" xmlns="http://www.w3.org/2000/svg">
<g clip-path="url(#clip0_1_212)">
<path d="M14.7928 0C13.9427 0 13.3192 0.684863 13.3192 1.48387C13.3192 2.33995 13.9993 2.96774 14.7928 2.96774H56.1107V37.3821H37.2371C36.727 33.7866 33.6664 30.9901 29.9824 30.9901C26.2984 30.9901 23.2378 33.7866 22.7277 37.3821H16.3231V30.8189C16.3231 29.9628 15.643 29.2779 14.8495 29.2779C13.9993 29.2779 13.3759 29.9628 13.3759 30.8189V38.866C13.3759 39.7221 14.056 40.3499 14.8495 40.3499H22.9544C23.8046 43.5459 26.6384 45.9429 30.0391 45.9429C33.4397 45.9429 36.2736 43.5459 37.1238 40.3499H64.499C65.3492 43.5459 68.1831 45.9429 71.5837 45.9429C74.9844 45.9429 77.8182 43.5459 78.6684 40.3499H85.4697C86.3199 40.3499 86.9433 39.665 86.9433 38.866V24.8263C86.9433 24.8263 86.9433 24.4268 86.83 24.2556L81.2189 10.2159C80.9922 9.64516 80.4254 9.24566 79.8586 9.24566H59.1147V1.48387C59.1147 0.627791 58.4345 0 57.641 0H14.7928ZM8.27492 9.53102C7.42476 9.53102 6.8013 10.2159 6.8013 11.072C6.8013 11.928 7.48143 12.5558 8.27492 12.5558H30.8892C31.7394 12.5558 32.4195 11.871 32.4195 11.072C32.4195 10.2159 31.7394 9.53102 30.9459 9.53102H8.27492ZM59.1713 12.3846H78.8951L83.316 23.3995H59.228V12.3846H59.1713ZM1.53029 19.1762C0.68013 19.1762 0 19.861 0 20.66C0 21.5161 0.68013 22.1439 1.53029 22.1439H30.9459C31.7961 22.1439 32.4762 21.4591 32.4762 20.66C32.4762 19.804 31.7961 19.1762 30.9459 19.1762H1.53029ZM59.1713 26.4243H83.9961V37.4392H78.8384C78.3283 33.8437 75.2678 31.0471 71.5837 31.0471C67.8997 31.0471 64.8391 33.8437 64.329 37.4392H59.1713V26.4243ZM29.9257 34.0149C29.9257 34.0149 29.9824 34.0149 30.0391 34.0149C32.4195 34.0149 34.4033 35.9553 34.4033 38.4665C34.4033 40.9777 32.4762 42.9752 30.0391 42.9752C27.602 42.9752 25.6749 40.9777 25.6749 38.4665C25.6749 35.9553 27.5453 34.072 29.9257 34.0149ZM71.4704 34.0149C71.4704 34.0149 71.527 34.0149 71.5837 34.0149C73.9642 34.0149 75.9479 35.9553 75.9479 38.4665C75.9479 40.9777 74.0208 42.9752 71.5837 42.9752C69.1466 42.9752 67.2195 40.9777 67.2195 38.4665C67.2195 35.9553 69.0899 34.072 71.4704 34.0149Z" fill="#DF2127"/>
</g>
<defs>
<clipPath id="clip0_1_212">
<rect width="87" height="46" fill="white"/>
</clipPath>
</defs>
</svg>
