<svg width="76" height="65" viewBox="0 0 76 65" fill="none" xmlns="http://www.w3.org/2000/svg">
<g clip-path="url(#clip0_1_244)">
<path d="M75.9762 58.9845C75.9762 58.9018 75.9525 58.8309 75.9287 58.7482C75.905 58.6655 75.8812 58.5946 75.8337 58.5236C75.8219 58.4882 75.81 58.4527 75.7981 58.4291L63.9231 40.7018C63.9231 40.7018 63.8637 40.6545 63.84 40.6309C63.7806 40.56 63.7212 40.5009 63.65 40.4536C63.6025 40.4182 63.555 40.3827 63.4956 40.3591C63.4125 40.3118 63.3294 40.2764 63.2344 40.2527C63.1869 40.2409 63.1275 40.2291 63.08 40.2173C63.0206 40.2173 62.9731 40.1818 62.9256 40.1818H48.2481C52.6775 34.32 56.9881 26.6264 56.9881 18.9091C57 8.46182 48.4975 0 38 0C27.5025 0 19 8.46182 19 18.9091C19 26.6264 23.3106 34.32 27.74 40.1818H13.0625C13.0625 40.1818 13.015 40.1936 12.9912 40.1936C12.8844 40.1936 12.7775 40.2173 12.6706 40.2527C12.6231 40.2764 12.5756 40.2882 12.5281 40.3118C12.445 40.3473 12.3737 40.4064 12.3025 40.4655C12.2431 40.5127 12.1956 40.56 12.1481 40.6191C12.1244 40.6545 12.0887 40.6664 12.065 40.7018L0.201875 58.4409C0.201875 58.4409 0.16625 58.5236 0.1425 58.5709C0.11875 58.6064 0.106875 58.6418 0.083125 58.6891C0.035625 58.8191 0 58.9609 0 59.1027V63.83C0 64.48 0.534375 65.0118 1.1875 65.0118H74.8125C75.4656 65.0118 76 64.48 76 63.83V59.1027C76 59.1027 75.9762 59.0318 75.9762 58.9964V58.9845ZM65.0512 57.9091L63.9231 55.5455H71.0125L72.5919 57.9091H65.0512ZM60.5269 48.4545L57.7006 42.5455H62.3081L66.2625 48.4545H60.5269ZM38 2.36364C47.1794 2.36364 54.6131 9.77364 54.625 18.9091C54.625 31.59 41.3963 44.8382 38 48.0291C37.6556 47.6982 37.2044 47.2727 36.67 46.7409C36.5631 46.5282 36.385 46.3509 36.1712 46.2327C31.3144 41.3045 21.375 29.9 21.375 18.9091C21.375 9.77364 28.8206 2.37545 38 2.36364ZM49.495 48.4545L50.5163 52H25.4837L26.505 48.4545H35.0075C36.2306 49.66 37.0619 50.3927 37.2163 50.5227C37.43 50.7118 37.715 50.8182 38 50.8182C38.285 50.8182 38.57 50.7118 38.7837 50.5227C38.9381 50.3927 39.7694 49.66 40.9925 48.4545H49.495ZM32.7156 46.0909H25.6144C25.6144 46.0909 25.5788 46.0909 25.555 46.1027C25.46 46.1027 25.3769 46.1264 25.2937 46.15C25.2344 46.1736 25.1631 46.1855 25.1037 46.2091C25.0325 46.2445 24.9731 46.2918 24.9019 46.3391C24.8425 46.3864 24.7831 46.4218 24.7356 46.4809C24.6881 46.54 24.6525 46.5991 24.6169 46.6582C24.5694 46.7291 24.5337 46.8 24.51 46.8709C24.51 46.8945 24.4862 46.9064 24.4744 46.93L22.7763 52.8391C22.7525 52.9455 22.7287 53.0518 22.7287 53.1582C22.7287 53.8082 23.2631 54.34 23.9162 54.34H52.0956C52.2025 54.34 52.3094 54.3282 52.4162 54.2927C52.44 54.2927 52.4519 54.2691 52.4756 54.2573C52.5588 54.2336 52.63 54.1864 52.7013 54.1391C52.7606 54.1036 52.82 54.0682 52.8675 54.0209C52.9269 53.9618 52.9744 53.9027 53.0219 53.8436C53.0694 53.7845 53.105 53.7373 53.1406 53.6664C53.1763 53.5955 53.1881 53.5245 53.2119 53.4536C53.2356 53.3827 53.2475 53.3118 53.2594 53.2291C53.2594 53.2055 53.2713 53.1818 53.2713 53.1582C53.2713 53.0991 53.2475 53.0518 53.2356 52.9927C53.2356 52.9336 53.2356 52.8864 53.2238 52.8391L51.5256 46.93C51.5256 46.9064 51.5019 46.8945 51.49 46.8709C51.4663 46.7882 51.4187 46.7291 51.3712 46.6582C51.3356 46.5991 51.3 46.5282 51.2525 46.4809C51.205 46.4336 51.1456 46.3864 51.0863 46.3391C51.0269 46.2918 50.9675 46.2445 50.8844 46.2091C50.825 46.1855 50.7537 46.1618 50.6944 46.15C50.6112 46.1264 50.5281 46.1027 50.4331 46.1027C50.4094 46.1027 50.3975 46.0909 50.3737 46.0909H43.2725C44.2344 45.0509 45.2913 43.8691 46.3838 42.5455H55.0525L58.6862 50.1446C58.7456 50.2627 58.8169 50.3573 58.9 50.4518C58.9237 50.4755 58.9594 50.4991 58.995 50.5345C59.0662 50.5936 59.1375 50.6527 59.2206 50.6882C59.2681 50.7118 59.3156 50.7355 59.3631 50.7473C59.4581 50.7827 59.565 50.7946 59.6719 50.8064C59.7075 50.8064 59.7313 50.83 59.7669 50.83H67.83L69.4094 53.1936H62.0231C62.0231 53.1936 62.0112 53.1936 61.9994 53.1936C61.8925 53.1936 61.7856 53.2291 61.6906 53.2527C61.6431 53.2645 61.5956 53.2645 61.5481 53.2882C61.5363 53.2882 61.5244 53.2882 61.5125 53.2882C61.4294 53.3236 61.3819 53.3827 61.3106 53.4418C61.2631 53.4773 61.2156 53.5009 61.1681 53.5482C61.0969 53.6191 61.0494 53.7136 61.0019 53.7964C60.9781 53.8436 60.9425 53.8791 60.9188 53.9264C60.8831 54.0327 60.8594 54.1391 60.8475 54.2455C60.8475 54.2809 60.8238 54.3164 60.8238 54.3636C60.8238 54.3636 60.8238 54.3636 60.8238 54.3755C60.8238 54.47 60.8594 54.5527 60.8831 54.6473C60.895 54.7064 60.9069 54.7773 60.9306 54.8364V54.86L62.3913 57.8973H13.5731L18.9881 46.5873C18.9881 46.5873 18.9881 46.5755 18.9881 46.5636C19.0238 46.4809 19.0356 46.3864 19.0594 46.2918C19.0594 46.2327 19.095 46.1736 19.095 46.1027C19.095 46.1027 19.095 46.0791 19.095 46.0673C19.095 45.9845 19.0594 45.9255 19.0475 45.8427C19.0356 45.7718 19.0356 45.7127 19.0119 45.6536C18.9762 45.5591 18.9169 45.4882 18.8694 45.4055C18.8337 45.3582 18.81 45.3109 18.7744 45.2755C18.7031 45.1927 18.6081 45.1336 18.5131 45.0745C18.4775 45.0509 18.4538 45.0273 18.43 45.0036C18.43 45.0036 18.43 45.0036 18.4181 45.0036C18.3231 44.9564 18.2281 44.9445 18.1213 44.9327C18.0619 44.9327 18.0144 44.8973 17.955 44.8973C17.955 44.8973 17.9312 44.8973 17.9194 44.8973H12.1125L13.6919 42.5336H29.5925C30.685 43.8573 31.7419 45.0391 32.7038 46.0791L32.7156 46.0909ZM10.5331 47.2727H16.0431L10.9488 57.9091H3.40812L10.5331 47.2727ZM73.625 62.6364H2.375V60.2727H73.625V62.6364Z" fill="#DF2127"/>
<path d="M38 33.0909C45.8612 33.0909 52.2381 26.7327 52.25 18.9091C52.25 11.0737 45.8731 4.72729 38 4.72729C30.1269 4.72729 23.75 11.0737 23.75 18.9091C23.75 26.7446 30.1269 33.0909 38 33.0909ZM38 7.09093C44.555 7.09093 49.8631 12.3855 49.875 18.9091C49.875 25.4327 44.555 30.7273 38 30.7273C31.445 30.7273 26.125 25.4327 26.125 18.9091C26.125 12.3855 31.445 7.09093 38 7.09093Z" fill="#DF2127"/>
<path d="M38 28.3637C43.2487 28.3637 47.4881 24.1328 47.5 18.9091C47.5 13.6855 43.2487 9.45459 38 9.45459C32.7512 9.45459 28.5 13.6855 28.5 18.9091C28.5 24.1328 32.7512 28.3637 38 28.3637ZM38 11.8182C41.9306 11.8182 45.125 14.9973 45.125 18.9091C45.125 22.821 41.9306 26 38 26C34.0694 26 30.875 22.821 30.875 18.9091C30.875 14.9973 34.0694 11.8182 38 11.8182Z" fill="#DF2127"/>
<path d="M38 23.6363C40.6244 23.6363 42.75 21.5209 42.75 18.909C42.75 16.2972 40.6244 14.1818 38 14.1818C35.3756 14.1818 33.25 16.2972 33.25 18.909C33.25 21.5209 35.3756 23.6363 38 23.6363ZM38 16.5454C39.3063 16.5454 40.375 17.609 40.375 18.909C40.375 20.209 39.3063 21.2727 38 21.2727C36.6937 21.2727 35.625 20.209 35.625 18.909C35.625 17.609 36.6937 16.5454 38 16.5454Z" fill="#DF2127"/>
</g>
<defs>
<clipPath id="clip0_1_244">
<rect width="76" height="65" fill="white"/>
</clipPath>
</defs>
</svg>
