<svg width="14" height="14" viewBox="0 0 14 14" fill="none" xmlns="http://www.w3.org/2000/svg">
<path fill-rule="evenodd" clip-rule="evenodd" d="M7.0001 13.4C10.5347 13.4 13.4001 10.5346 13.4001 7.00001C13.4001 3.46538 10.5347 0.600006 7.0001 0.600006C3.46548 0.600006 0.600098 3.46538 0.600098 7.00001C0.600098 10.5346 3.46548 13.4 7.0001 13.4ZM7.7501 3.00001C7.7501 2.58579 7.41431 2.25001 7.0001 2.25001C6.58588 2.25001 6.2501 2.58579 6.2501 3.00001V7.00001C6.2501 7.41422 6.58588 7.75001 7.0001 7.75001H10.2001C10.6143 7.75001 10.9501 7.41422 10.9501 7.00001C10.9501 6.58579 10.6143 6.25001 10.2001 6.25001H7.7501V3.00001Z" fill="#333333"/>
</svg>
