<svg width="32" height="32" viewBox="0 0 32 32" fill="none" xmlns="http://www.w3.org/2000/svg">
<rect x="0.5" y="0.5" width="31" height="31" rx="11.5" stroke="#878787"/>
<path fill-rule="evenodd" clip-rule="evenodd" d="M10.3371 10.3371C10.7032 9.97097 11.2968 9.97097 11.6629 10.3371L16 14.6742L20.3371 10.3371C20.7032 9.97097 21.2968 9.97097 21.6629 10.3371C22.029 10.7032 22.029 11.2968 21.6629 11.6629L17.3258 16L21.6629 20.3371C22.029 20.7032 22.029 21.2968 21.6629 21.6629C21.2968 22.029 20.7032 22.029 20.3371 21.6629L16 17.3258L11.6629 21.6629C11.2968 22.029 10.7032 22.029 10.3371 21.6629C9.97097 21.2968 9.97097 20.7032 10.3371 20.3371L14.6742 16L10.3371 11.6629C9.97097 11.2968 9.97097 10.7032 10.3371 10.3371Z" fill="#979797"/>
</svg>
