<svg width="24" height="24" viewBox="0 0 24 24" fill="none" xmlns="http://www.w3.org/2000/svg">
<path d="M24 0H12H0V12V24H12H24V12V0ZM13.5385 9.35385H15.0769V11.6923H13.5385V17.7231H10.3385V11.6923H9.16923V9.35385H10.3385V8.98461C10.3385 8.61538 10.4 8.24615 10.4615 7.87692C10.5231 7.44615 10.6462 7.13846 10.8923 6.89231C11.0769 6.64615 11.3846 6.4 11.7538 6.27692C12.1231 6.09231 12.6769 6.03077 13.3538 6.03077C13.9077 6.03077 14.7077 6.09231 15.8154 6.21538L15.4462 8.12308C15.0769 8.06154 14.7692 8 14.5231 8C14.2154 8 14.0308 8.06154 13.9077 8.12308C13.7846 8.24615 13.6615 8.36923 13.6615 8.61539C13.5385 8.73846 13.5385 8.98462 13.5385 9.35385Z" fill="#333333"/>
</svg>
