<svg width="24" height="18" viewBox="0 0 24 18" fill="none" xmlns="http://www.w3.org/2000/svg">
<path fill-rule="evenodd" clip-rule="evenodd" d="M5.25 3H18.75C19.1242 3 19.4772 3.09137 19.7876 3.25303L13.125 8.25C12.4583 8.75 11.5417 8.75 10.875 8.25L4.21237 3.25303C4.52284 3.09137 4.87575 3 5.25 3ZM3.00186 5.15765C3.00062 5.18828 3 5.21907 3 5.25V12.75C3 13.9926 4.00736 15 5.25 15H18.75C19.9926 15 21 13.9926 21 12.75V5.25C21 5.21907 20.9994 5.18828 20.9981 5.15765L14.475 10.05C13.0083 11.15 10.9917 11.15 9.525 10.05L3.00186 5.15765ZM0.75 5.25C0.75 2.76472 2.76472 0.75 5.25 0.75H18.75C21.2353 0.75 23.25 2.76472 23.25 5.25V12.75C23.25 15.2353 21.2353 17.25 18.75 17.25H5.25C2.76472 17.25 0.75 15.2353 0.75 12.75V5.25Z" fill="white"/>
</svg>
