<svg width="22" height="22" viewBox="0 0 22 22" fill="none" xmlns="http://www.w3.org/2000/svg">
<path fill-rule="evenodd" clip-rule="evenodd" d="M6.26482 15.4158L5.97294 18.9183C5.95806 19.0969 6.09896 19.25 6.27812 19.25C6.35312 19.25 6.42552 19.2225 6.48158 19.1726L9.79574 16.2267L10.6798 16.2464C10.7859 16.2488 10.8926 16.25 11 16.25C13.5422 16.25 15.6302 15.5894 17.0305 14.484C18.3641 13.4312 19.25 11.8452 19.25 9.5C19.25 7.15484 18.3641 5.56883 17.0305 4.51603C15.6302 3.41062 13.5422 2.75 11 2.75C8.45777 2.75 6.3698 3.41062 4.96952 4.51603C3.63588 5.56883 2.75 7.15484 2.75 9.5C2.75 11.9715 3.7339 13.6136 5.22126 14.6727L6.26482 15.4158ZM7.97639 20.8543L10.6296 18.4959C10.7526 18.4986 10.876 18.5 11 18.5C16.799 18.5 21.5 15.5 21.5 9.5C21.5 3.5 16.799 0.5 11 0.5C5.20101 0.5 0.5 3.5 0.5 9.5C0.5 12.6755 1.81678 15.0107 3.9162 16.5056L3.73071 18.7315C3.60652 20.2218 4.78262 21.5 6.27812 21.5C6.90418 21.5 7.50847 21.2702 7.97639 20.8543Z" fill="white"/>
</svg>
