<svg width="24" height="24" viewBox="0 0 24 24" fill="none" xmlns="http://www.w3.org/2000/svg">
<path d="M0 8.86154V24H24V8.86154H17.4769C18.0308 9.78462 18.3385 10.8308 18.3385 12C18.3385 15.5077 15.5077 18.3385 12 18.3385C8.49231 18.3385 5.66154 15.5077 5.66154 12C5.66154 10.8308 5.96923 9.78462 6.52308 8.86154H0Z" fill="#D1D1D1"/>
<path d="M21.5385 2.33846H17.1692V5.16923H21.5385V2.33846ZM24 0V8H16.8615C15.6923 6.58462 13.9692 5.72308 12 5.72308C10.0308 5.72308 8.3077 6.64615 7.13847 8H0V0H24Z" fill="#D1D1D1"/>
<path d="M12 16.3692C14.4131 16.3692 16.3692 14.4131 16.3692 12C16.3692 9.58694 14.4131 7.63077 12 7.63077C9.58694 7.63077 7.63077 9.58694 7.63077 12C7.63077 14.4131 9.58694 16.3692 12 16.3692Z" fill="#D1D1D1"/>
</svg>
