<svg width="192" height="48" viewBox="0 0 192 48" fill="none" xmlns="http://www.w3.org/2000/svg">
<g clip-path="url(#clip0_1_64)">
<path d="M176.683 7.41512H9.73398C5.10561 7.41512 1.35358 11.1691 1.35358 15.7998V38.261C1.35358 42.8918 5.10561 46.6457 9.73398 46.6457H176.683C181.311 46.6457 185.063 42.8918 185.063 38.261V15.7998C185.063 11.1691 181.311 7.41512 176.683 7.41512Z" fill="white"/>
<path d="M176.284 8.77724C177.205 8.77673 178.117 8.95846 178.968 9.31205C179.819 9.66564 180.593 10.1842 181.244 10.838C181.895 11.4918 182.412 12.2682 182.765 13.1226C183.117 13.9771 183.299 14.8929 183.299 15.8179V38.3078C183.299 39.2327 183.117 40.1485 182.765 41.003C182.412 41.8575 181.895 42.6338 181.244 43.2876C180.593 43.9414 179.819 44.46 178.968 44.8136C178.117 45.1672 177.205 45.3489 176.284 45.3484H9.71221C7.85275 45.3484 6.06944 44.6066 4.75461 43.2862C3.43977 41.9659 2.7011 40.175 2.7011 38.3078V15.8179C2.7011 13.9506 3.43977 12.1598 4.75461 10.8394C6.06944 9.51902 7.85275 8.77724 9.71221 8.77724H176.284ZM176.284 6.06084H9.71221C7.13697 6.06501 4.66844 7.09444 2.84783 8.92344C1.02723 10.7525 0.00310562 13.2318 0 15.8179V38.3078C0.00310789 40.8935 1.02735 43.3724 2.84807 45.2008C4.66879 47.0292 7.13733 48.0577 9.71221 48.0608H176.284C178.859 48.0588 181.329 47.0307 183.151 45.2022C184.972 43.3737 185.997 40.8942 186 38.3078V15.8179C185.997 13.2311 184.972 10.7512 183.151 8.92206C181.329 7.09294 178.86 6.06397 176.284 6.06084Z" fill="#DF2127"/>
<path d="M64.2262 31.6271L63.5279 35.8665C63.435 36.3844 63.4047 36.9116 63.4376 37.4367C63.5828 38.5397 64.4381 38.5397 65.007 38.5397C65.2372 38.5728 65.472 38.5489 65.6908 38.4702C65.9097 38.3915 66.106 38.2604 66.2625 38.0883C66.7176 37.5584 66.9452 36.4161 67.0119 36.0079L67.259 34.5005C67.5429 32.9822 67.3439 31.413 66.6901 30.0137L64.697 25.7704C64.2479 24.7881 63.897 23.7638 63.6495 22.7125C63.3593 21.2907 63.3234 19.8288 63.5436 18.3945L63.6652 17.6605C63.86 16.2475 64.4736 14.9253 65.4268 13.8646C65.9071 13.318 66.5023 12.8847 67.1698 12.5956C67.8373 12.3064 68.5605 12.1687 69.2874 12.1923C70.6763 12.1923 72.0064 12.5182 72.7518 13.947C73.4973 15.3759 73.1441 17.0481 72.9401 18.265L72.4654 21.1423H69.6092L70.1584 17.7978C70.3664 16.5339 70.2016 16.0432 70.0447 15.7605C69.9093 15.5693 69.727 15.4162 69.5154 15.3158C69.3038 15.2155 69.0699 15.1713 68.8362 15.1874C68.5846 15.1846 68.336 15.2423 68.1114 15.3557C67.8867 15.4691 67.6926 15.6349 67.5454 15.8391C67.1921 16.2728 66.9654 16.7958 66.8902 17.3503L66.8235 17.7429C66.5567 19.3719 66.49 21.0049 67.4081 22.8813L69.3698 26.999C70.1898 28.7144 71.0294 30.7949 70.3781 34.7517L70.2997 35.2385C70.0525 36.7498 69.7661 38.5044 68.4635 39.9725C67.2159 41.3582 65.9251 41.5191 64.6225 41.5191C63.52 41.5191 62.2174 41.2758 61.3582 40.2983C60.1812 38.9519 60.5068 36.789 60.7736 35.16L61.3543 31.6271H64.2262Z" fill="#231F20"/>
<path d="M77.9857 41.1305L78.6016 18.002H78.48L78.1426 21.7939L74.9686 41.1305H71.7906L76.4751 12.5731H81.3676L80.8027 30.9284H80.8811L86.3425 12.5731H91.2311L86.5465 41.1266H83.3686L86.5387 21.79L87.4489 17.998H87.3273L80.3515 41.1305H77.9857Z" fill="#231F20"/>
<path d="M94.0873 12.5731H97.2653L92.5807 41.1266H89.4028L94.0873 12.5731Z" fill="#231F20"/>
<path d="M97.9676 41.1305L102.158 15.5957H98.407L98.9014 12.577H109.581L109.087 15.5957H105.336L101.146 41.1305H97.9676Z" fill="#231F20"/>
<path d="M111.986 27.2188L109.703 41.1305H106.525L111.209 12.5731H114.387L112.484 24.2002H115.909L117.812 12.5731H120.994L116.31 41.1266H113.128L115.411 27.2149L111.986 27.2188Z" fill="#231F20"/>
<path d="M119.692 41.1305L124.376 12.5731H127.554L123.368 38.1079H128.625L128.131 41.1266L119.692 41.1305Z" fill="#231F20"/>
<path d="M136.609 41.1305L136.904 35.8665H133.314L131.882 41.1305H128.617L136.892 12.5731H140.968L139.87 41.1266L136.609 41.1305ZM137.111 32.8479L137.959 18.736L137.884 18.6968L134.094 32.8283L137.111 32.8479Z" fill="#231F20"/>
<path d="M145.59 31.6271L144.892 35.8665C144.797 36.3842 144.766 36.9116 144.801 37.4367C144.947 38.5397 145.802 38.5397 146.371 38.5397C146.601 38.5728 146.836 38.5489 147.055 38.4702C147.273 38.3915 147.47 38.2604 147.626 38.0883C148.077 37.5584 148.309 36.4161 148.376 36.0079L148.623 34.5005C148.905 32.9821 148.706 31.4136 148.054 30.0137L146.061 25.7704C145.61 24.7888 145.259 23.7643 145.013 22.7125C144.721 21.291 144.685 19.8286 144.907 18.3945L145.025 17.6605C145.223 16.2477 145.838 14.9261 146.791 13.8646C147.271 13.318 147.866 12.8847 148.534 12.5956C149.201 12.3064 149.924 12.1687 150.651 12.1923C152.04 12.1923 153.37 12.5182 154.116 13.947C154.861 15.3759 154.508 17.0481 154.304 18.265L153.825 21.1619H150.973L151.522 17.8175C151.73 16.5535 151.565 16.0628 151.408 15.7802C151.272 15.5889 151.089 15.4358 150.877 15.3355C150.665 15.2352 150.43 15.191 150.196 15.2071C149.945 15.2025 149.696 15.2595 149.472 15.3731C149.247 15.4866 149.054 15.6533 148.909 15.8587C148.556 16.2925 148.329 16.8155 148.254 17.37L148.187 17.7625C147.92 19.3916 147.854 21.0245 148.768 22.9009L150.73 27.0186C151.546 28.7341 152.389 30.8145 151.738 34.7713L151.66 35.2581C151.412 36.7694 151.122 38.524 149.823 39.9922C148.576 41.3778 147.285 41.5388 145.982 41.5388C144.88 41.5388 143.573 41.2954 142.718 40.318C141.541 38.9715 141.867 36.8086 142.133 35.1796L142.714 31.6467L145.59 31.6271Z" fill="#231F20"/>
<path d="M157.847 12.5731H166.235L165.741 15.5918H160.522L159.055 24.526H162.398L161.919 27.5486H158.576L156.819 38.1119H162.037L161.543 41.1305H153.146L157.847 12.5731Z" fill="#231F20"/>
<path d="M170.158 41.1305C169.884 40.314 169.852 39.4975 170.158 37.7429L171.28 30.893C171.41 30.108 171.496 29.3425 171.214 28.8126C171.045 28.5523 170.812 28.3403 170.537 28.1972C170.262 28.0541 169.954 27.9848 169.644 27.9961H168.75L166.592 41.1305H163.414L168.079 12.5731H172.905C173.925 12.5731 175.683 12.7772 176.55 14.4495C177.201 15.7134 176.962 17.4289 176.824 18.2414L176.263 21.6683C176.075 22.8106 175.753 24.2787 174.866 25.2012C174.296 25.7756 173.564 26.1607 172.767 26.3042L172.748 26.4259C173.247 26.585 173.681 26.9001 173.988 27.3248C174.855 28.5024 174.6 30.0726 174.451 30.9519L173.446 37.0716C173.148 38.9048 172.987 39.8862 173.717 40.9068L173.682 41.1109L170.158 41.1305ZM170.445 24.9774C170.798 25.0021 171.151 24.9492 171.481 24.8224C171.812 24.6956 172.11 24.4979 172.355 24.2434C172.552 24.0393 172.877 23.5486 173.14 22.0412L173.784 18.1158C173.886 17.5034 174.019 16.6909 173.615 16.1531C173.211 15.6153 172.285 15.58 171.834 15.58H170.774L169.236 24.9617L170.445 24.9774Z" fill="#231F20"/>
<path d="M10.5697 44.84C6.48149 44.84 3.15836 41.3425 3.15836 37.0442V17.0245C3.15836 12.7066 6.48149 9.22865 10.5697 9.22865H61.8722L56.3794 44.84H10.5697Z" fill="#DF2127"/>
<path d="M61.3268 9.67615L55.9871 44.3886H10.5697C6.73257 44.3886 3.60953 41.0952 3.60953 37.0442V17.0245C3.60953 12.9735 6.74826 9.68008 10.5697 9.68008H61.3268M62.3822 8.77724H10.5697C6.22645 8.77724 2.72284 12.4671 2.72284 17.0206V37.0402C2.72284 41.5937 6.25391 45.2836 10.5697 45.2836H56.7482L62.3822 8.77724Z" fill="white"/>
<path d="M51.4477 14.7478H41.8628C41.7633 14.7405 41.6633 14.7537 41.5691 14.7868C41.4749 14.8199 41.3886 14.872 41.3154 14.94C41.2423 15.008 41.184 15.0903 41.1441 15.1818C41.1042 15.2734 41.0836 15.3722 41.0836 15.472C41.0836 15.5719 41.1042 15.6707 41.1441 15.7622C41.184 15.8538 41.2423 15.9361 41.3154 16.0041C41.3886 16.072 41.4749 16.1242 41.5691 16.1573C41.6633 16.1903 41.7633 16.2036 41.8628 16.1963H50.7219V19.0775C43.1654 19.3602 39.0497 24 38.8339 27.5368H34.7026C34.5424 27.2502 34.2917 27.0249 33.9898 26.8961C33.6878 26.7673 33.3518 26.7424 33.0342 26.8252C32.7166 26.908 32.4354 27.0939 32.2347 27.3537C32.034 27.6136 31.9251 27.9327 31.9251 28.261C31.9251 28.5894 32.034 28.9085 32.2347 29.1684C32.4354 29.4282 32.7166 29.6141 33.0342 29.6969C33.3518 29.7797 33.6878 29.7548 33.9898 29.626C34.2917 29.4972 34.5424 29.2719 34.7026 28.9853H38.932C39.4656 31.9019 41.851 33.9352 41.9648 34.0334C42.0952 34.1411 42.2587 34.2007 42.4278 34.2022H45.3232V37.5388H39.5441C39.1517 35.843 37.6726 33.4485 34.1415 33.4485C30.6105 33.4485 29.1588 36.0471 28.7939 37.8685H26.9735C26.8133 37.5819 26.5626 37.3566 26.2606 37.2278C25.9587 37.099 25.6226 37.0741 25.305 37.1569C24.9874 37.2397 24.7063 37.4256 24.5056 37.6854C24.3049 37.9453 24.196 38.2644 24.196 38.5927C24.196 38.9211 24.3049 39.2402 24.5056 39.5001C24.7063 39.7599 24.9874 39.9458 25.305 40.0286C25.6226 40.1114 25.9587 40.0865 26.2606 39.9577C26.5626 39.8289 26.8133 39.6036 26.9735 39.317H29.4256C29.6089 39.3164 29.7852 39.2465 29.9191 39.1213C30.053 38.996 30.1346 38.8248 30.1475 38.6418C30.1475 38.4887 30.4378 34.897 34.1415 34.897C37.7668 34.897 38.1787 37.9823 38.2101 38.3278C38.2276 38.5076 38.311 38.6745 38.4444 38.7963C38.5777 38.9181 38.7515 38.9862 38.932 38.9872H46.0491C46.2405 38.9872 46.4242 38.9111 46.5595 38.7757C46.6949 38.6402 46.771 38.4565 46.771 38.265V33.476C46.771 33.2844 46.6949 33.1007 46.5595 32.9652C46.4242 32.8298 46.2405 32.7537 46.0491 32.7537H42.7103C42.1492 32.2002 40.5053 30.4691 40.2934 28.2748C40.2934 28.2748 40.2934 28.2552 40.2934 28.2434C40.2934 28.2316 40.2934 28.1649 40.2934 28.1256C40.2934 28.0236 40.2934 27.9176 40.2934 27.8155C40.2934 25.264 43.5734 20.4985 51.4712 20.4985C51.6627 20.4985 51.8463 20.4224 51.9817 20.287C52.1171 20.1515 52.1931 19.9678 52.1931 19.7763V15.4583C52.1916 15.3624 52.1711 15.2678 52.1326 15.18C52.0942 15.0922 52.0386 15.0129 51.9693 14.9467C51.8999 14.8806 51.818 14.8289 51.7285 14.7948C51.6389 14.7606 51.5435 14.7447 51.4477 14.7478Z" fill="white"/>
<path d="M37.5863 13.9902C37.3226 13.9899 37.0637 14.06 36.8361 14.1932C36.6086 14.3263 36.4206 14.5178 36.2916 14.7478H26.7851C26.6897 14.7476 26.5952 14.7662 26.5071 14.8026C26.4189 14.839 26.3387 14.8924 26.2712 14.9598L25.051 16.1845H8.96499C8.83792 16.1844 8.71305 16.2178 8.60289 16.2812C8.49273 16.3445 8.40113 16.4357 8.33725 16.5456C8.27358 16.6568 8.24008 16.7826 8.24008 16.9107C8.24008 17.0388 8.27358 17.1646 8.33725 17.2758C9.80254 19.4764 11.7419 21.3207 14.013 22.6731C16.284 24.0256 18.829 24.8518 21.4611 25.0913C23.7013 25.3189 25.2432 25.9392 26.0397 26.9362C26.294 27.2623 26.4785 27.6372 26.5818 28.0376C26.685 28.4381 26.7048 28.8555 26.64 29.264C26.5654 29.8685 25.9494 32.8832 20.8843 32.8832C20.7892 32.8827 20.6949 32.901 20.6068 32.9371C20.5188 32.9731 20.4388 33.0263 20.3713 33.0934C20.3039 33.1605 20.2503 33.2403 20.2138 33.3282C20.1773 33.4161 20.1585 33.5103 20.1585 33.6055V38.5947C20.1585 38.6899 20.1773 38.7841 20.2138 38.872C20.2503 38.9599 20.3039 39.0397 20.3713 39.1068C20.4388 39.1739 20.5188 39.2271 20.6068 39.2631C20.6949 39.2992 20.7892 39.3175 20.8843 39.317C21.0758 39.317 21.2594 39.2409 21.3948 39.1054C21.5302 38.97 21.6062 38.7863 21.6062 38.5947V34.3121C27.2481 34.0098 27.9935 30.2375 28.0877 29.4524C28.1743 28.8533 28.1387 28.2428 27.9829 27.6579C27.8272 27.0729 27.5545 26.5256 27.1814 26.0491C26.1338 24.7341 24.2624 23.9333 21.6219 23.6663C19.5083 23.4511 17.4558 22.8314 15.5759 21.841H30.0926C30.2528 22.1276 30.5035 22.353 30.8054 22.4817C31.1073 22.6105 31.4434 22.6354 31.761 22.5526C32.0786 22.4698 32.3597 22.2839 32.5604 22.0241C32.7611 21.7643 32.87 21.4452 32.87 21.1168C32.87 20.7884 32.7611 20.4693 32.5604 20.2095C32.3597 19.9496 32.0786 19.7638 31.761 19.6809C31.4434 19.5981 31.1073 19.6231 30.8054 19.7518C30.5035 19.8806 30.2528 20.1059 30.0926 20.3925H13.269C12.2031 19.5933 11.2351 18.671 10.3853 17.6448H25.3492C25.5415 17.6435 25.7258 17.5675 25.8631 17.4328L27.0833 16.208H36.2916C36.4188 16.4364 36.604 16.6271 36.8286 16.7608C37.0531 16.8946 37.309 16.9665 37.5703 16.9695C37.8316 16.9724 38.0891 16.9063 38.3166 16.7776C38.5441 16.649 38.7336 16.4626 38.8659 16.2371C38.9982 16.0116 39.0687 15.7552 39.0701 15.4938C39.0715 15.2323 39.0038 14.9751 38.8739 14.7483C38.744 14.5214 38.5565 14.3329 38.3304 14.2018C38.1043 14.0708 37.8476 14.0018 37.5863 14.002V13.9902Z" fill="white"/>
<path d="M190.25 5.50736H189.05L188.014 4.10991H187.559V5.50736H186.582V1.69578H188.23C188.424 1.69296 188.618 1.70609 188.81 1.73503C188.972 1.75851 189.126 1.8146 189.265 1.8999C189.404 1.98021 189.522 2.09343 189.607 2.22963C189.698 2.38511 189.743 2.56359 189.736 2.74387C189.746 2.98798 189.677 3.22883 189.54 3.43082C189.391 3.62147 189.199 3.77359 188.979 3.87438L190.25 5.50736ZM188.72 2.86163C188.721 2.77633 188.7 2.69227 188.657 2.61825C188.611 2.54367 188.54 2.48699 188.457 2.45731C188.384 2.42708 188.305 2.40982 188.226 2.40628C188.135 2.40628 188.033 2.40628 187.916 2.40628H187.559V3.43082H187.861C187.992 3.43235 188.123 3.42448 188.253 3.40726C188.349 3.39684 188.441 3.36168 188.52 3.3052C188.582 3.25841 188.633 3.198 188.669 3.12856C188.705 3.04846 188.723 2.96122 188.72 2.8734V2.86163Z" fill="#DF2127"/>
<path d="M188.206 7.62316C187.453 7.62316 186.716 7.39962 186.09 6.9808C185.463 6.56197 184.975 5.96669 184.686 5.27021C184.398 4.57374 184.323 3.80735 184.47 3.06798C184.617 2.32861 184.979 1.64945 185.512 1.11639C186.045 0.58333 186.724 0.22031 187.463 0.073239C188.202 -0.0738317 188.968 0.00165489 189.664 0.290144C190.36 0.578634 190.955 1.06717 191.374 1.69398C191.792 2.32079 192.016 3.05772 192.016 3.81158C192.016 4.82247 191.614 5.79197 190.9 6.50678C190.185 7.22159 189.216 7.62316 188.206 7.62316ZM188.206 0.529936C187.557 0.529936 186.923 0.722398 186.384 1.08299C185.844 1.44358 185.424 1.95611 185.176 2.55575C184.928 3.1554 184.863 3.81522 184.989 4.4518C185.116 5.08838 185.428 5.67311 185.887 6.13206C186.345 6.59101 186.93 6.90355 187.566 7.03017C188.202 7.1568 188.862 7.09181 189.461 6.84343C190.061 6.59505 190.573 6.17443 190.933 5.63477C191.294 5.09511 191.486 4.46063 191.486 3.81158C191.485 2.94155 191.139 2.10746 190.524 1.49226C189.909 0.877052 189.076 0.530975 188.206 0.529936Z" fill="#DF2127"/>
</g>
<defs>
<clipPath id="clip0_1_64">
<rect width="192" height="48" fill="white"/>
</clipPath>
</defs>
</svg>
