<svg width="24" height="24" viewBox="0 0 24 24" fill="none" xmlns="http://www.w3.org/2000/svg">
<path d="M0 0V24H24V0H0ZM12 2.76923C14.4 2.76923 16.3077 4.67692 16.3077 7.07692C16.3077 9.47692 14.4 11.3846 12 11.3846C9.6 11.3846 7.69231 9.47692 7.69231 7.07692C7.69231 4.67692 9.6 2.76923 12 2.76923ZM16.9231 14.2769C16.1846 14.7077 13.8462 15.6923 13.8462 15.6923L16.4308 19.0154C16.4308 19.0154 16.9231 19.6308 16.9231 20C16.9231 20.6769 16.3692 21.2308 15.6923 21.2308C15.0769 21.2308 14.7692 20.8 14.7692 20.8L12 17.5385L9.16923 20.8C9.16923 20.8 8.86154 21.2308 8.24615 21.2308C7.56923 21.2308 7.01538 20.6769 7.01538 20C7.01538 19.5692 7.50769 19.0154 7.50769 19.0154L10.1538 15.6923C10.1538 15.6923 7.81538 14.7077 7.07692 14.2769C6.83077 14.1538 6.46154 13.8462 6.46154 13.2308C6.46154 12.5538 7.01538 12 7.69231 12C8.30769 12 9.53846 13.2308 12 13.2308C14.4615 13.2308 15.6923 12 16.3077 12C16.9846 12 17.5385 12.5538 17.5385 13.2308C17.4769 13.8462 17.1077 14.0923 16.9231 14.2769Z" fill="#D1D1D1"/>
<path d="M12 9.23077C13.1692 9.23077 14.1538 8.24615 14.1538 7.07692C14.1538 5.90769 13.1692 4.92308 12 4.92308C10.8308 4.92308 9.84615 5.90769 9.84615 7.07692C9.84615 8.24615 10.8308 9.23077 12 9.23077Z" fill="#D1D1D1"/>
</svg>
