<svg width="24" height="24" viewBox="0 0 24 24" fill="none" xmlns="http://www.w3.org/2000/svg">
<path d="M24 0H12H0V12V24H12H24V12V0ZM7.63077 6.33846H14.0923C15.1385 6.33846 16 6.58461 16.5538 7.13846C17.1077 7.69231 17.4154 8.30769 17.4154 9.10769C17.4154 9.78462 17.2308 10.3385 16.8 10.7692C16.5538 11.0769 16.1231 11.3231 15.6308 11.5077C16.4308 11.6923 17.0462 12 17.4154 12.4923C17.7846 12.9846 17.9692 13.5385 17.9692 14.2769C17.9692 14.8308 17.8462 15.3846 17.5385 15.8154C17.2923 16.3077 16.9231 16.6154 16.4308 16.9231C16.1231 17.1077 15.6923 17.2308 15.1385 17.2923C14.3385 17.4154 13.8462 17.4154 13.6 17.4154H7.69231V6.33846H7.63077ZM11.1385 10.7077V8.61539H12.6769C13.1692 8.61539 13.5385 8.67692 13.7846 8.86154C13.9692 9.04615 14.0923 9.29231 14.0923 9.6C14.0923 9.96923 13.9692 10.2154 13.7846 10.4C13.6 10.5846 13.1692 10.6462 12.6769 10.6462L11.1385 10.7077ZM11.1385 15.0769V12.8H12.8615C13.4769 12.8 13.9077 12.9231 14.1538 13.1077C14.4 13.2923 14.5231 13.6 14.5231 13.9077C14.5231 14.2769 14.4 14.5231 14.1538 14.7692C13.9077 14.9538 13.4769 15.0769 12.9231 15.0769H11.1385Z" fill="#333333"/>
</svg>
