<svg width="24" height="24" viewBox="0 0 24 24" fill="none" xmlns="http://www.w3.org/2000/svg">
<path d="M0 0V24H24V0H0ZM14.6462 6.27692H14.7077C14.7692 6.27692 14.8308 6.27692 14.8923 6.27692H15.7539V9.84615C15.7539 9.90769 15.7539 10.1538 15.7539 10.2154C15.7539 10.2769 15.7538 10.3385 15.8154 10.4L15.9385 10.4615C16.1231 10.5231 16.2462 10.4 16.3692 10.4L16.4308 10.3385L16.5538 10.2769C16.6154 10.2154 16.6769 10.2154 16.6769 10.1538C16.7385 10.1538 16.6769 10.1538 16.7385 10.1538C16.7385 10.1538 16.7385 10.1538 16.7385 10.0923C16.7385 10.0923 16.7385 10.0923 16.7385 10.0308V9.96923C16.7385 9.90769 16.7385 9.90769 16.7385 9.84615V6.21538H17.9077V11.2615H16.8C16.8 11.1385 16.8 10.8308 16.8 10.7077C16.7385 10.7692 16.6154 10.8308 16.5538 10.8923C16.5538 10.8923 16.5538 10.8923 16.4923 10.9538C16.2462 11.1385 15.9385 11.2615 15.6923 11.3231C15.4462 11.3846 15.0769 11.3846 14.8923 11.2C14.7692 11.1385 14.7692 11.0769 14.7077 11.0769C14.7077 11.0154 14.6462 11.0154 14.6462 10.9538C14.5846 10.8923 14.5846 10.7692 14.5846 10.7077V6.52308L14.6462 6.27692C14.5846 6.27692 14.5846 6.27692 14.6462 6.27692ZM10.1538 7.07692C10.1538 7.01538 10.2154 6.83077 10.2769 6.83077C10.2769 6.76923 10.3385 6.70769 10.4 6.64615C10.4615 6.58462 10.4615 6.52308 10.5231 6.52308L10.5846 6.46154C11.0769 6.09231 11.9385 6.03077 12.4923 6.15385C12.8615 6.21538 12.8615 6.33846 13.0462 6.4C13.0462 6.4 13.0462 6.4 13.1077 6.46154C13.1692 6.46154 13.1077 6.46154 13.1692 6.52308H13.2308C13.2923 6.52308 13.2308 6.52308 13.2923 6.52308L13.4769 6.70769C13.5385 6.76923 13.6 6.89231 13.6 6.95385C13.6 7.01538 13.6 7.01539 13.6615 7.01539V10.3385C13.6615 10.4 13.6615 10.4 13.6 10.4615C13.6 10.5231 13.5385 10.5846 13.5385 10.7077C13.5385 10.7077 13.5385 10.7692 13.4769 10.7692C13.4769 10.8308 13.4769 10.7692 13.4769 10.8308L13.4154 10.8923C13.3538 10.9538 13.3539 10.9538 13.2923 11.0154C13.2923 11.0769 13.2923 11.0154 13.2308 11.0769C13.2308 11.0769 13.2308 11.0769 13.1692 11.0769L13.0462 11.1385C12.6769 11.3846 12.2462 11.4462 11.8769 11.4462C11.6923 11.4462 11.5077 11.4462 11.3231 11.3846C11.2615 11.3846 11.1385 11.3231 11.0769 11.3231C11.0154 11.3231 10.9538 11.2615 10.8923 11.2615C10.8308 11.2 10.7692 11.2 10.7077 11.1385L10.5846 11.0769C10.5231 11.0154 10.4615 11.0154 10.4615 10.9538C10.4615 10.8923 10.4 10.8308 10.3385 10.7692L10.2769 10.7077L10.2154 10.4615L10.1538 10.3385V7.07692ZM6.89231 4.61538C6.95385 4.61538 6.95385 4.61539 6.95385 4.73846L7.07692 5.16923L7.2 5.53846L7.32308 5.84615L7.44616 6.21538L7.56923 6.52308L7.69231 6.89231L7.81539 7.32308H7.87693L8 6.89231L8.12308 6.52308L8.18462 6.15385L8.30769 5.78462L8.43077 5.47692L8.55385 5.10769C8.55385 5.04615 8.67693 4.61539 8.73846 4.55385H10.0308C10.0308 4.61539 9.84616 5.04615 9.78462 5.10769C9.78462 5.16923 9.72308 5.29231 9.72308 5.35385L9.66154 5.41538C9.66154 5.47692 9.53846 5.72308 9.53846 5.78462C9.53846 5.84616 9.41539 6.09231 9.41539 6.09231C9.41539 6.15385 9.29231 6.4 9.29231 6.46154C9.29231 6.52308 9.23077 6.70769 9.16923 6.83077L8.92308 7.50769C8.92308 7.63077 8.8 7.69231 8.8 7.81539C8.73846 7.87692 8.8 7.87692 8.73846 7.87692V7.93846L8.61539 8.24615C8.61539 8.30769 8.55385 8.43077 8.55385 8.49231V11.3231H7.2V8.73846C7.2 8.49231 7.07692 8.36923 7.07692 8.24615V8.12308C7.07692 8.06154 7.01539 7.93846 7.01539 7.87692C6.95385 7.81538 6.95385 7.75385 6.95385 7.69231C6.95385 7.63077 6.89231 7.56923 6.89231 7.50769C6.83077 7.44615 6.83077 7.38462 6.83077 7.32308L6.76923 7.13846C6.70769 7.01538 6.64616 6.89231 6.64616 6.76923L6.52308 6.4C6.46154 6.33846 6.4 6.15385 6.4 6.09231C6.33846 6.03077 6.33846 5.96923 6.33846 5.90769C6.33846 5.84615 6.27693 5.78462 6.27693 5.72308L6.21539 5.66154C6.21539 5.6 6.15385 5.47692 6.15385 5.41538C6.09231 5.35385 6.03077 5.10769 6.03077 5.04615C5.96923 4.98462 5.96923 4.86154 5.9077 4.8C5.84616 4.67692 5.84616 4.61538 5.78462 4.49231L6.89231 4.61538ZM18.9538 17.4769C18.9538 18.5231 18.0923 19.3846 17.0462 19.3846H7.01539C5.96923 19.3846 5.10769 18.5231 5.10769 17.4769V14.0308C5.10769 12.9846 5.96923 12.1231 7.01539 12.1231H17.0462C18.0923 12.1231 18.9538 12.9846 18.9538 14.0308V17.4769Z" fill="#333333"/>
<path d="M14.6462 14.9539C14.5846 14.8308 14.5231 14.7077 14.4 14.5846C14.2769 14.5231 14.1538 14.4616 13.9692 14.4616C13.6 14.4616 13.3538 14.6462 13.1692 14.7692V13.1692H12.3077V18.0923H13.1692V17.8462C13.2923 17.9692 13.5385 18.0923 13.7846 18.1539C14.0308 18.2154 14.2769 18.1539 14.4615 18.0308L14.5231 17.9692C14.5231 17.9077 14.5846 17.9077 14.5846 17.8462C14.5846 17.7846 14.6462 17.7846 14.6462 17.7231C14.7077 17.6 14.7077 17.4769 14.7077 17.3539V15.8154C14.7077 15.6923 14.7077 15.5077 14.7077 15.3846C14.7077 15.2616 14.6462 15.0769 14.7077 15.0154C14.6462 15.0769 14.6462 15.0154 14.6462 14.9539ZM13.8462 16V17.3539C13.7846 17.5385 13.7231 17.6 13.5385 17.6C13.4154 17.6 13.1692 17.4769 13.1692 17.4154V15.2C13.2923 15.1385 13.4154 15.0154 13.6615 15.0769C13.8462 15.1385 13.9077 15.2616 13.9077 15.5077L13.8462 16Z" fill="#333333"/>
<path d="M17.7846 16.4308V15.3846L17.7231 15.1385C17.6 14.7077 17.2308 14.5231 16.7385 14.4615C16.6154 14.4615 16.4923 14.4615 16.3693 14.4615C16.2462 14.4615 16.1846 14.5231 16.0616 14.5231C15.9385 14.5846 15.877 14.5846 15.6923 14.7077C15.5077 14.8308 15.3846 15.0154 15.3231 15.2L15.2616 15.4462V17.4154C15.2616 17.4769 15.3231 17.5385 15.3231 17.6C15.3846 17.6615 15.3846 17.7231 15.4462 17.7846C15.5077 17.7846 15.5077 17.8462 15.5693 17.9077C15.6308 17.9692 15.6308 17.9692 15.6923 18.0308C15.8154 18.0308 15.9385 18.2769 16.677 18.2769C17.2923 18.2154 17.477 17.9692 17.5385 17.9692C17.5385 17.9077 17.6 17.9077 17.6 17.8462C17.6 17.8462 17.6616 17.7846 17.6616 17.7231C17.6616 17.6 17.7231 17.5385 17.7231 17.4154V16.8615H16.8616V17.2308C16.8616 17.2923 16.8616 17.4154 16.8 17.4769C16.7385 17.6 16.6154 17.6615 16.4308 17.6C16.2462 17.6 16.1846 17.5385 16.1231 17.3538C16.1231 17.2923 16.1231 17.2923 16.1231 17.2308C16.0616 17.1692 16.1231 16.5538 16.1231 16.4308H17.7846ZM16.2462 15.3231C16.2462 15.2 16.3077 15.2 16.3693 15.1385C16.4308 15.0769 16.5539 15.0769 16.677 15.0769C16.8 15.0769 16.8616 15.1385 16.8616 15.2C16.9231 15.3231 16.9231 15.6923 16.9231 15.8154H16.1846C16.1846 15.7538 16.1846 15.3846 16.2462 15.3231Z" fill="#333333"/>
<path d="M10.6462 14.8923V17.2307C10.6462 17.3538 10.4 17.4769 10.3385 17.4769C10.277 17.5384 10.1539 17.5384 10.0923 17.5384C9.96926 17.5384 9.96926 17.4769 9.96926 17.3538V14.5846H9.10772V17.7846C9.16926 17.9692 9.16926 17.9692 9.2308 18.0923C9.29234 18.0923 9.47695 18.4 10.0308 18.2154C10.3385 18.0923 10.4616 17.9692 10.7077 17.8461V18.2154H11.5693V14.5846H10.7077C10.6462 14.5231 10.6462 14.8923 10.6462 14.8923Z" fill="#333333"/>
<path d="M9.04616 13.2308H6.15385V13.9692H7.13847V18.1538H8.06154V14.1538L8.12308 13.9692H9.04616V13.2308Z" fill="#333333"/>
<path d="M11.3846 10.2769C11.3846 10.3384 11.4462 10.4 11.4462 10.4615C11.5077 10.4615 11.5692 10.5846 11.8769 10.5846C11.9385 10.5846 12.0615 10.5846 12.1231 10.5231C12.2462 10.4615 12.2462 10.4615 12.3077 10.4C12.3077 10.3384 12.3077 10.4 12.3692 10.3384C12.3692 10.2769 12.3692 10.3384 12.3692 10.2769C12.3692 10.2769 12.3692 10.3384 12.3692 10.2154C12.3692 10.1538 12.3692 10.2154 12.3692 10.1538C12.4308 10.1538 12.3692 9.90768 12.3692 9.84614V7.44614C12.3692 7.3846 12.3692 7.32306 12.3077 7.26152C12.1846 7.19999 12.1231 7.13845 11.9385 7.13845C11.7538 7.13845 11.6923 7.13845 11.5692 7.26152C11.5077 7.32306 11.4462 7.3846 11.4462 7.50768V10.0308C11.4462 10.0923 11.4462 10.2769 11.4462 10.3384L11.3846 10.2769Z" fill="#333333"/>
</svg>
